<mxGraphModel arrows="1" connect="1" dx="1024" dy="592" fold="1" grid="1" gridSize="10" guides="1" math="0" page="1" pageHeight="1169" pageScale="1" pageWidth="827" shadow="0" tooltips="1"><root><mxCell id="WIyWlLk6GJQsqaUBKTNV-0"/><mxCell id="WIyWlLk6GJQsqaUBKTNV-1" parent="WIyWlLk6GJQsqaUBKTNV-0"/><mxCell id="WIyWlLk6GJQsqaUBKTNV-2" value="01_p1_Task04_REST_JSONorXML" style="rounded=1;whiteSpace=wrap;html=1;fontSize=12;glass=0;strokeWidth=1;shadow=0;" parent="WIyWlLk6GJQsqaUBKTNV-1" vertex="1"><mxGeometry x="900" y="100" width="120" height="40" as="geometry"/></mxCell></root></mxGraphModel>